<mxfile host="app.diagrams.net" agent="Mozilla/5.0 (Windows NT 10.0; Win64; x64) AppleWebKit/537.36 (KHTML, like Gecko) Chrome/131.0.0.0 Safari/537.36" version="25.0.3">
  <diagram name="Trang-1" id="fI1fXI7jSGelNQvmiIvR">
    <mxGraphModel dx="794" dy="446" grid="1" gridSize="10" guides="1" tooltips="1" connect="1" arrows="1" fold="1" page="1" pageScale="1" pageWidth="827" pageHeight="1169" math="0" shadow="0">
      <root>
        <mxCell id="0" />
        <mxCell id="1" parent="0" />
        <mxCell id="JSi_AhWX088z8bTcLYFd-6" style="edgeStyle=orthogonalEdgeStyle;rounded=0;orthogonalLoop=1;jettySize=auto;html=1;entryX=0.5;entryY=0;entryDx=0;entryDy=0;" edge="1" parent="1" source="JSi_AhWX088z8bTcLYFd-1" target="JSi_AhWX088z8bTcLYFd-2">
          <mxGeometry relative="1" as="geometry" />
        </mxCell>
        <mxCell id="JSi_AhWX088z8bTcLYFd-1" value="START" style="ellipse;whiteSpace=wrap;html=1;" vertex="1" parent="1">
          <mxGeometry x="354" y="10" width="120" height="80" as="geometry" />
        </mxCell>
        <mxCell id="JSi_AhWX088z8bTcLYFd-7" style="edgeStyle=orthogonalEdgeStyle;rounded=0;orthogonalLoop=1;jettySize=auto;html=1;entryX=0.5;entryY=0;entryDx=0;entryDy=0;" edge="1" parent="1" source="JSi_AhWX088z8bTcLYFd-2" target="JSi_AhWX088z8bTcLYFd-3">
          <mxGeometry relative="1" as="geometry" />
        </mxCell>
        <mxCell id="JSi_AhWX088z8bTcLYFd-2" value="Nhập vào&amp;nbsp;&lt;div&gt;2 số&amp;nbsp;&lt;div class=&quot;custom-cursor-default-hover&quot;&gt;N1 và N2&lt;/div&gt;&lt;/div&gt;&lt;div class=&quot;custom-cursor-default-hover&quot;&gt;và khai báo tổng&lt;/div&gt;" style="shape=parallelogram;html=1;strokeWidth=2;perimeter=parallelogramPerimeter;whiteSpace=wrap;rounded=1;arcSize=12;size=0.23;" vertex="1" parent="1">
          <mxGeometry x="342" y="140" width="144" height="90" as="geometry" />
        </mxCell>
        <mxCell id="JSi_AhWX088z8bTcLYFd-8" style="edgeStyle=orthogonalEdgeStyle;rounded=0;orthogonalLoop=1;jettySize=auto;html=1;entryX=0.5;entryY=0;entryDx=0;entryDy=0;" edge="1" parent="1" source="JSi_AhWX088z8bTcLYFd-3" target="JSi_AhWX088z8bTcLYFd-4">
          <mxGeometry relative="1" as="geometry" />
        </mxCell>
        <mxCell id="JSi_AhWX088z8bTcLYFd-3" value="Tổng = N1 + N2" style="rounded=1;whiteSpace=wrap;html=1;absoluteArcSize=1;arcSize=14;strokeWidth=2;" vertex="1" parent="1">
          <mxGeometry x="364" y="280" width="100" height="70" as="geometry" />
        </mxCell>
        <mxCell id="JSi_AhWX088z8bTcLYFd-4" value="in ra tổng&amp;nbsp;&lt;div&gt;của&amp;nbsp;&lt;span style=&quot;background-color: initial;&quot;&gt;2 số&lt;/span&gt;&lt;/div&gt;" style="shape=parallelogram;html=1;strokeWidth=2;perimeter=parallelogramPerimeter;whiteSpace=wrap;rounded=1;arcSize=12;size=0.23;" vertex="1" parent="1">
          <mxGeometry x="364" y="430" width="100" height="60" as="geometry" />
        </mxCell>
        <mxCell id="JSi_AhWX088z8bTcLYFd-5" value="END" style="strokeWidth=2;html=1;shape=mxgraph.flowchart.start_1;whiteSpace=wrap;" vertex="1" parent="1">
          <mxGeometry x="364" y="550" width="100" height="60" as="geometry" />
        </mxCell>
        <mxCell id="JSi_AhWX088z8bTcLYFd-9" style="edgeStyle=orthogonalEdgeStyle;rounded=0;orthogonalLoop=1;jettySize=auto;html=1;entryX=0.5;entryY=0;entryDx=0;entryDy=0;entryPerimeter=0;" edge="1" parent="1" source="JSi_AhWX088z8bTcLYFd-4" target="JSi_AhWX088z8bTcLYFd-5">
          <mxGeometry relative="1" as="geometry" />
        </mxCell>
      </root>
    </mxGraphModel>
  </diagram>
</mxfile>
